<svg id="Layer_1" data-name="Layer 1" xmlns="http://www.w3.org/2000/svg" xmlns:xlink="http://www.w3.org/1999/xlink" viewBox="0 0 500 500"><defs><style>.cls-1,.cls-2,.cls-3{fill:#FFFFFF;}.cls-1{clip-rule:evenodd;}.cls-3{fill-rule:evenodd;}.cls-4{clip-path:url(#clip-path);}.cls-5{clip-path:url(#clip-path-2);}</style><clipPath id="clip-path"><path class="cls-1" d="M-19.5,615.53a205.91,205.91,0,0,1-58.92,16.09,102.54,102.54,0,0,0,45.11-56.53,206.59,206.59,0,0,1-65.14,24.8,102.62,102.62,0,0,0-74.88-32.27c-56.65,0-102.58,45.74-102.58,102.18a102.28,102.28,0,0,0,2.66,23.29A291.61,291.61,0,0,1-484.69,586.31a101.47,101.47,0,0,0-13.89,51.38,102,102,0,0,0,45.63,85A102.35,102.35,0,0,1-499.41,710c0,.44,0,.85,0,1.29a102.33,102.33,0,0,0,82.3,100.19,103,103,0,0,1-27,3.58,103.84,103.84,0,0,1-19.29-1.82,102.61,102.61,0,0,0,95.82,71A206.29,206.29,0,0,1-495,927.9a212.56,212.56,0,0,1-24.47-1.42,291.24,291.24,0,0,0,157.25,45.9c188.69,0,291.86-155.71,291.86-290.73,0-4.44-.09-8.85-.3-13.23A207.58,207.58,0,0,0-19.5,615.53"/></clipPath><clipPath id="clip-path-2"><rect class="cls-2" x="-1162.36" y="-51.43" width="1761.9" height="7309.52"/></clipPath></defs><path class="cls-3" d="M-19.5,615.53a205.91,205.91,0,0,1-58.92,16.09,102.54,102.54,0,0,0,45.11-56.53,206.59,206.59,0,0,1-65.14,24.8,102.62,102.62,0,0,0-74.88-32.27c-56.65,0-102.58,45.74-102.58,102.18a102.28,102.28,0,0,0,2.66,23.29A291.61,291.61,0,0,1-484.69,586.31a101.47,101.47,0,0,0-13.89,51.38,102,102,0,0,0,45.63,85A102.35,102.35,0,0,1-499.41,710c0,.44,0,.85,0,1.29a102.33,102.33,0,0,0,82.3,100.19,103,103,0,0,1-27,3.58,103.84,103.84,0,0,1-19.29-1.82,102.61,102.61,0,0,0,95.82,71A206.29,206.29,0,0,1-495,927.9a212.56,212.56,0,0,1-24.47-1.42,291.24,291.24,0,0,0,157.25,45.9c188.69,0,291.86-155.71,291.86-290.73,0-4.44-.09-8.85-.3-13.23A207.58,207.58,0,0,0-19.5,615.53"/><g class="cls-4"><rect class="cls-2" x="-1162.36" y="-51.43" width="1761.9" height="7309.52"/><g class="cls-5"><rect class="cls-2" x="-638.55" y="448.57" width="738.1" height="642.86"/></g></g><g id="SIN5uH.tif"><path class="cls-2" d="M301.56,80.29c1.92-3.89,3.51-7.93,5.83-11.5,1.82-2.79,5.13-3.86,8.46-3.49,30.59,3.41,60.28,10.31,87.92,24.26,8.47,4.27,16.45,9.59,24.36,14.87,7.16,4.78,11.17,12.34,15.17,19.65,12.27,22.36,21.11,46.15,28.82,70.4a629.91,629.91,0,0,1,18.08,70.93c5.86,30.2,9.42,60.67,9.63,91.46a17.29,17.29,0,0,1-2.22,8.43C488.46,381,475.42,393,460.17,402.64c-27.43,17.29-57.71,26.62-89.59,31.27-3,.45-6.13.62-9.2.81a10.13,10.13,0,0,1-9.17-4.05c-6.58-8.85-13-17.81-19.51-26.74a4.52,4.52,0,0,1-.36-.93c6-1.82,12-3.47,17.94-5.46,22.14-7.45,43.13-17.18,61.85-31.39,3.48-2.63,6.27-5.64,6-10.33a10.38,10.38,0,0,0-6.21-9.47c-3.91-1.82-7.56-1.17-11.25,1.17-9.28,5.93-18.38,12.26-28.15,17.26-22,11.24-45.49,18-69.8,22.19a319.66,319.66,0,0,1-68,4c-31.78-1.35-62.66-7.32-92.26-19.26-15.36-6.19-29.92-13.81-43.1-23.93-5-3.81-11.54-3.09-15.2,1.47-3.89,4.84-3.3,11.25,1.75,15.38A160.56,160.56,0,0,0,127.67,389c12.67,5.12,25.82,9.05,38.76,13.51a13.86,13.86,0,0,1,1.31.63c-4.27,5.91-8.44,11.69-12.62,17.45-1.75,2.42-3.72,4.7-5.23,7.25-3.61,6.1-9,7.5-15.58,6.71-28.35-3.42-55.44-11.08-80.92-24-17.28-8.79-32.5-20.22-44.71-35.5C2.49,367.29-.69,359.22-.1,348.85c1.35-23.94,3.47-47.76,7.57-71.39A621,621,0,0,1,35.92,170.29a342.61,342.61,0,0,1,22.34-49.65C64,110.36,72.38,103.15,82.21,97.18c21.55-13.09,45-21.39,69.47-26.58,10.57-2.23,21.33-3.58,32-5.24a10.21,10.21,0,0,1,10.45,5.45c1.51,3.07,2.54,6.39,3.87,9.82-6.89,1.45-13.39,2.67-19.83,4.19-26.44,6.24-51.72,15.46-74.95,29.79-5.91,3.65-7.66,9.9-4.34,15.34,3.21,5.26,9.6,6.75,15.37,3.25,23.8-14.43,49.67-23.38,76.79-28.94,21.67-4.44,43.58-6.91,65.73-6.24a302,302,0,0,1,50.85,6c23,4.65,45.13,11.71,66,22.51,4.23,2.19,8.26,4.75,12.45,7,7.26,4,15.42,0,16.38-8a10.41,10.41,0,0,0-5.28-10.59,237.32,237.32,0,0,0-63.92-27.1C323.12,85.08,312.82,82.94,301.56,80.29ZM282.64,268.55c-.19,15,4,26.23,12.18,35.14a34.56,34.56,0,0,0,50.05,1.43c16.57-16.18,18.36-44.16,4-62.32-12.68-16-33.36-19.23-49.18-7.23A42.51,42.51,0,0,0,282.64,268.55Zm-65.44,7.32c.1-15.34-3.45-25.42-10.57-34.26-13-16.19-37.23-17.7-51.72-3.19-17.22,17.23-18.26,45.68-2.34,64.18,12.94,15,34.13,16.89,49.24,4C212.46,297.59,217,285.64,217.2,275.87Z"/></g></svg>
