<svg xmlns="http://www.w3.org/2000/svg" xmlns:xlink="http://www.w3.org/1999/xlink" width="25" height="19" viewBox="0 0 25 19">
    <defs>
        <path id="prefix__a" d="M0 0.153L24.71 0.153 24.71 12.147 0 12.147z"/>
    </defs>
    <g fill="none" fill-rule="evenodd">
        <mask id="prefix__b" fill="#fff">
            <use xlink:href="#prefix__a"/>
        </mask>
        <path fill="#FFFFFF" d="M12.307.154c3.356 0 6.713.001 10.07-.001.444 0 .875.066 1.26.3.693.424 1.09 1.042 1.072 1.896-.013.614-.161 1.197-.49 1.712-.368.578-.794 1.115-1.35 1.512-.986.704-1.986 1.39-2.984 2.077-.583.401-1.175.788-1.761 1.185-.845.571-1.688 1.145-2.532 1.717-.39.265-.775.541-1.177.786-.488.298-.972.603-1.538.74-.443.109-.881.094-1.284-.09-.512-.233-1.013-.505-1.487-.812-.86-.559-1.696-1.157-2.544-1.735-.601-.41-1.206-.813-1.808-1.22-.84-.566-1.684-1.128-2.519-1.704-.529-.364-1.072-.715-1.56-1.134C1.097 4.886.595 4.303.277 3.58c-.2-.456-.355-.928-.235-1.437C.199 1.477.419.846 1.035.46c.414-.26.87-.304 1.334-.304C5.682.153 8.994.154 12.307.154" mask="url(#prefix__b)"/>
        <path fill="#FFFFFF" d="M.758 18.435c.454-.464.894-.91 1.33-1.36.518-.536 1.03-1.076 1.548-1.612.377-.391.758-.778 1.137-1.167.631-.65 1.26-1.302 1.892-1.95.311-.317.63-.627.949-.946.154.108.305.212.455.319.52.369 1.02.773 1.562 1.099.713.428 1.461.778 2.294.83.588.036 1.147-.1 1.691-.328.727-.306 1.4-.719 2.032-1.218.315-.248.65-.468.974-.701.165.16.326.306.478.464.324.335.642.678.966 1.014.638.661 1.278 1.32 1.919 1.978.333.343.672.68 1.005 1.023.672.692 1.34 1.387 2.01 2.08.153.156.314.305.485.471-.31.321-.67.466-1.058.534-.165.028-.335.033-.502.033C15.39 19 8.855 19 2.319 19c-.526 0-1.026-.093-1.453-.463-.029-.024-.055-.052-.108-.102M0 6.84c.057.042.108.067.142.108.521.613 1.172 1.034 1.813 1.471.405.276.805.56 1.205.842.916.646 1.831 1.294 2.746 1.941.042.03.08.064.155.126-.164.169-.319.33-.476.49-.37.378-.742.753-1.113 1.131-.64.656-1.28 1.313-1.922 1.968-.348.355-.699.705-1.046 1.06-.456.466-.91.936-1.366 1.402-.034.035-.078.058-.138.101V6.84zM18.182 11.333c.658-.414 1.297-.818 1.94-1.218.941-.588 1.879-1.181 2.83-1.755.725-.438 1.438-.889 2.048-1.52v10.64c-.026-.011-.046-.015-.058-.026l-1.77-1.62c-.707-.644-1.417-1.286-2.126-1.929-.465-.42-.928-.843-1.394-1.262-.487-.437-.976-.87-1.47-1.31"/>
    </g>
</svg>
