<svg width="10" height="10" viewBox="0 0 10 10" fill="none" xmlns="http://www.w3.org/2000/svg">
<path fill-rule="evenodd" clip-rule="evenodd" d="M4.98471 0.120117C2.23242 0.120117 0 2.35253 0 5.10483C0 7.30666 1.43731 9.17211 3.3945 9.84489C3.63914 9.87547 3.73089 9.72256 3.73089 9.60024C3.73089 9.47792 3.73089 9.17211 3.73089 8.74397C2.35474 9.04978 2.04893 8.07119 2.04893 8.07119C1.83486 7.49015 1.49847 7.33724 1.49847 7.33724C1.03976 7.03143 1.52905 7.03143 1.52905 7.03143C2.01835 7.06201 2.29358 7.55131 2.29358 7.55131C2.75229 8.31584 3.45566 8.10177 3.73089 7.97945C3.76147 7.64305 3.91437 7.42899 4.0367 7.30666C2.93578 7.18434 1.7737 6.7562 1.7737 4.8296C1.7737 4.27914 1.95719 3.851 2.29358 3.48403C2.263 3.39229 2.07951 2.87241 2.35474 2.19963C2.35474 2.19963 2.78287 2.0773 3.73089 2.71951C4.12844 2.59718 4.55657 2.5666 4.98471 2.5666C5.41284 2.5666 5.84098 2.62776 6.23853 2.71951C7.18654 2.0773 7.61468 2.19963 7.61468 2.19963C7.88991 2.87241 7.70642 3.39229 7.67584 3.51461C7.98165 3.851 8.19572 4.30972 8.19572 4.86018C8.19572 6.78678 7.03364 7.18434 5.93272 7.30666C6.11621 7.45957 6.26911 7.76538 6.26911 8.22409C6.26911 8.89688 6.26911 9.41675 6.26911 9.60024C6.26911 9.72256 6.36086 9.87547 6.6055 9.84489C8.59327 9.17211 10 7.30666 10 5.10483C9.96942 2.35253 7.737 0.120117 4.98471 0.120117Z" fill="white"/>
</svg>
