<svg xmlns="http://www.w3.org/2000/svg" viewBox="0 0 27.22 28.44"><defs><style>.cls-1{fill:#FFFFFF;fill-rule:evenodd;}</style></defs><title>Asset 108</title><g id="Layer_2" data-name="Layer 2"><g id="Layer_1-2" data-name="Layer 1"><path class="cls-1" d="M0,14.52V28.44H6.35v-19H0Zm27.07.78c-.42-3.59-2-5.83-6.63-5.83-2.72,0-4.56,1-5.33,2.57H15V9.47H10v19h5.29V19c0-2.47.47-4.86,3.38-4.86s3.14,2.82,3.14,5v9.23h5.44V18a23,23,0,0,0-.15-2.72ZM3.17,0A3.24,3.24,0,0,0,0,3.31,3.24,3.24,0,0,0,3.17,6.63,3.25,3.25,0,0,0,6.35,3.31,3.24,3.24,0,0,0,3.17,0Z"/></g></g></svg>
