<svg xmlns="http://www.w3.org/2000/svg" viewBox="0 0 27.17 24.71"><defs><style>.cls-1{fill:#FFFFFF;}</style></defs><title>Asset 111</title><g id="Layer_2" data-name="Layer 2"><g id="Layer_1-2" data-name="Layer 1"><path class="cls-1" d="M.48,11.85l6.26,2.44,2.42,8.14a.72.72,0,0,0,1.17.36l3.49-3a1,1,0,0,1,1.27,0l6.29,4.77a.73.73,0,0,0,1.16-.47L27.15.93a.75.75,0,0,0-1-.88L.47,10.41a.78.78,0,0,0,0,1.44ZM8.77,13,21,5.12a.22.22,0,0,1,.25.35l-10.09,9.8a2.19,2.19,0,0,0-.65,1.31l-.35,2.66a.31.31,0,0,1-.61.05L8.23,14.44A1.31,1.31,0,0,1,8.77,13Z"/></g></g></svg>
