<svg xmlns="http://www.w3.org/2000/svg" viewBox="0 0 27.52 23"><defs><style>.cls-1{fill:#FFFFFF;fill-rule:evenodd;}</style></defs><title>Asset 109</title><g id="Layer_2" data-name="Layer 2"><g id="Layer_1-2" data-name="Layer 1"><path class="cls-1" d="M27.52,2.73a11.88,11.88,0,0,1-3.24.92A5.79,5.79,0,0,0,26.78.42a11.38,11.38,0,0,1-3.6,1.42A5.51,5.51,0,0,0,19,0,5.73,5.73,0,0,0,13.4,5.8a6.37,6.37,0,0,0,.17,1.33A15.86,15.86,0,0,1,1.92,1.06,6.14,6.14,0,0,0,1.15,4,5.86,5.86,0,0,0,3.66,8.81,5.32,5.32,0,0,1,1.1,8.09v.08a5.79,5.79,0,0,0,.39,2.09,5.71,5.71,0,0,0,4.15,3.58,5.32,5.32,0,0,1-1.49.22,4.66,4.66,0,0,1-1.06-.12,5.71,5.71,0,0,0,5.27,4,11.1,11.1,0,0,1-7,2.48A12.26,12.26,0,0,1,0,20.39,15.79,15.79,0,0,0,8.66,23c8.82,0,14.26-6.38,15.68-13a16.21,16.21,0,0,0,.37-3.5V5.74a12,12,0,0,0,2.81-3Z"/></g></g></svg>
