<svg width="115" height="23" viewBox="0 0 115 23" fill="none" xmlns="http://www.w3.org/2000/svg">
<path d="M15.502 5.05041C15.9868 6.14131 16.2898 7.35344 16.2898 8.59586C16.2898 8.62616 16.2898 8.68677 16.2898 8.71707L20.411 5.05041V0.686768L15.502 5.05041Z" fill="#0DB9CB"/>
<path d="M14.988 8.62613C14.988 4.2625 11.0789 0.717041 6.29102 0.717041V3.98977C9.23041 3.98977 11.6243 5.98977 11.7153 8.47462L9.50313 10.4443C10.0789 11.4746 10.4728 12.6261 10.6243 13.8383L12.594 12.0807C13.988 14.7473 16.988 16.5655 20.4425 16.5655V13.2928C17.4122 13.2625 14.988 11.1716 14.988 8.62613Z" fill="#0DB9CB"/>
<path d="M14.7755 22.626V19.3533C11.7755 19.3533 9.35126 17.2624 9.35126 14.717C9.35126 10.3533 5.44218 6.80786 0.654297 6.80786V10.0806C3.19975 10.0806 5.35126 11.5957 5.92702 13.626L4.77551 14.6563L2.41187 16.7776L0.654297 18.323V22.6867L6.59369 17.4139C7.77551 20.4139 10.9876 22.626 14.7755 22.626Z" fill="#0DB9CB"/>
<path d="M35.7756 9.98975V16.5352H33.109V10.3534C33.109 8.32308 32.109 7.35338 30.3817 7.35338C28.4726 7.35338 27.1999 8.5049 27.1999 10.7776V16.5352H24.5332V5.11096H27.0787V6.59581C27.9574 5.5352 29.3514 4.98975 31.018 4.98975C33.7453 4.98975 35.7756 6.5352 35.7756 9.98975Z" fill="#3D3D3D"/>
<path d="M49.109 11.6867H40.1696C40.503 13.3534 41.8666 14.414 43.8666 14.414C45.1393 14.414 46.1393 14.02 46.9575 13.1716L48.3817 14.8079C47.3514 16.02 45.7454 16.6564 43.7757 16.6564C39.9575 16.6564 37.4727 14.2019 37.4727 10.8079C37.4727 7.41399 39.9575 4.98975 43.3817 4.98975C46.7151 4.98975 49.1393 7.32308 49.1393 10.8988C49.1696 11.111 49.1393 11.414 49.109 11.6867ZM40.1393 9.89884H46.6242C46.412 8.26247 45.1393 7.11096 43.412 7.11096C41.6545 7.14126 40.412 8.23217 40.1393 9.89884Z" fill="#3D3D3D"/>
<path d="M58.5638 15.8987C57.9275 16.4139 56.9578 16.6563 55.9881 16.6563C53.5032 16.6563 52.0487 15.3229 52.0487 12.8078V7.35325H50.1699V5.23204H52.0487V2.62598H54.7154V5.23204H57.776V7.35325H54.7154V12.7775C54.7154 13.8987 55.2608 14.4745 56.2911 14.4745C56.8366 14.4745 57.382 14.3229 57.776 13.9896L58.5638 15.8987Z" fill="#3D3D3D"/>
<path d="M79.1997 5.11084L74.9875 16.5048H72.4118L69.4724 8.6563L66.4724 16.5048H63.8967L59.7148 5.11084H62.23L65.23 13.5351L68.3815 5.11084H70.6239L73.7148 13.5654L76.8057 5.11084H79.1997Z" fill="#3D3D3D"/>
<path d="M79.7754 10.8079C79.7754 7.38369 82.3511 4.98975 85.836 4.98975C89.3815 4.98975 91.9269 7.41399 91.9269 10.8079C91.9269 14.2019 89.3815 16.6564 85.836 16.6564C82.3511 16.6867 79.7754 14.2322 79.7754 10.8079ZM89.2602 10.8079C89.2602 8.62611 87.8057 7.23217 85.8663 7.23217C83.9572 7.23217 82.5027 8.62611 82.5027 10.8079C82.5027 12.9897 83.9572 14.3837 85.8663 14.3837C87.8057 14.3837 89.2602 12.9897 89.2602 10.8079Z" fill="#3D3D3D"/>
<path d="M100.685 4.98975V7.5352C100.443 7.5049 100.261 7.4746 100.079 7.4746C98.0488 7.4746 96.776 8.65641 96.776 10.9897V16.5352H94.1094V5.11096H96.6548V6.77763C97.3821 5.59581 98.776 4.98975 100.685 4.98975Z" fill="#3D3D3D"/>
<path d="M107.684 11.6262L105.684 13.5049V16.5049H103.018V0.686768H105.684V10.2625L111.23 5.14131H114.442L109.684 9.92919L114.896 16.5656H111.654L107.684 11.6262Z" fill="#3D3D3D"/>
</svg>
