<svg width="115" height="23" viewBox="0 0 115 23" fill="none" xmlns="http://www.w3.org/2000/svg">
<path d="M15.502 5.0505C15.9868 6.14141 16.2898 7.35353 16.2898 8.59595C16.2898 8.62625 16.2898 8.68686 16.2898 8.71716L20.411 5.0505V0.686859L15.502 5.0505Z" fill="white"/>
<path d="M14.987 8.62625C14.987 4.26262 11.0779 0.717163 6.29004 0.717163V3.98989C9.22943 3.98989 11.6234 5.98989 11.7143 8.47474L9.50216 10.4444C10.0779 11.4747 10.4719 12.6263 10.6234 13.8384L12.5931 12.0808C13.987 14.7475 16.987 16.5656 20.4415 16.5656V13.2929C17.4112 13.2626 14.987 11.1717 14.987 8.62625Z" fill="white"/>
<path d="M14.7745 22.6262V19.3535C11.7745 19.3535 9.35029 17.2626 9.35029 14.7171C9.35029 10.3535 5.4412 6.80804 0.65332 6.80804V10.0808C3.19877 10.0808 5.35029 11.5959 5.92605 13.6262L4.77453 14.6565L2.41089 16.7777L0.65332 18.3232V22.6868L6.59271 17.4141C7.77453 20.4141 10.9867 22.6262 14.7745 22.6262Z" fill="white"/>
<path d="M35.7746 9.98987V16.5353H33.108V10.3535C33.108 8.3232 32.108 7.35351 30.3807 7.35351C28.4716 7.35351 27.1989 8.50502 27.1989 10.7777V16.5353H24.5322V5.11108H27.0777V6.59593C27.9565 5.53532 29.3504 4.98987 31.0171 4.98987C33.7443 4.98987 35.7746 6.53532 35.7746 9.98987Z" fill="white"/>
<path d="M49.108 11.6868H40.1686C40.502 13.3535 41.8656 14.4141 43.8656 14.4141C45.1383 14.4141 46.1383 14.0202 46.9565 13.1717L48.3808 14.808C47.3505 16.0202 45.7444 16.6565 43.7747 16.6565C39.9565 16.6565 37.4717 14.202 37.4717 10.8081C37.4717 7.41411 39.9565 4.98987 43.3808 4.98987C46.7141 4.98987 49.1383 7.3232 49.1383 10.899C49.1686 11.1111 49.1383 11.4141 49.108 11.6868ZM40.1383 9.89896H46.6232C46.4111 8.2626 45.1383 7.11108 43.4111 7.11108C41.6535 7.14138 40.4111 8.23229 40.1383 9.89896Z" fill="white"/>
<path d="M58.5619 15.8988C57.9255 16.414 56.9558 16.6564 55.9861 16.6564C53.5013 16.6564 52.0468 15.3231 52.0468 12.8079V7.35337H50.168V5.23216H52.0468V2.6261H54.7134V5.23216H57.774V7.35337H54.7134V12.7776C54.7134 13.8988 55.2589 14.4746 56.2892 14.4746C56.8346 14.4746 57.3801 14.3231 57.774 13.9897L58.5619 15.8988Z" fill="white"/>
<path d="M79.1987 5.11102L74.9866 16.505H72.4108L69.4714 8.65648L66.4714 16.505H63.8957L59.7139 5.11102H62.229L65.229 13.5353L68.3805 5.11102H70.6229L73.7138 13.5656L76.8048 5.11102H79.1987Z" fill="white"/>
<path d="M79.7744 10.8081C79.7744 7.38381 82.3502 4.98987 85.835 4.98987C89.3805 4.98987 91.9259 7.41411 91.9259 10.8081C91.9259 14.202 89.3805 16.6565 85.835 16.6565C82.3502 16.6868 79.7744 14.2323 79.7744 10.8081ZM89.2593 10.8081C89.2593 8.62623 87.8047 7.23229 85.8653 7.23229C83.9562 7.23229 82.5017 8.62623 82.5017 10.8081C82.5017 12.9899 83.9562 14.3838 85.8653 14.3838C87.8047 14.3838 89.2593 12.9899 89.2593 10.8081Z" fill="white"/>
<path d="M100.683 4.98987V7.53532C100.441 7.50502 100.259 7.47472 100.077 7.47472C98.0468 7.47472 96.7741 8.65654 96.7741 10.9899V16.5353H94.1074V5.11108H96.6529V6.77775C97.3802 5.59593 98.7741 4.98987 100.683 4.98987Z" fill="white"/>
<path d="M107.683 11.6263L105.683 13.505V16.505H103.017V0.686859H105.683V10.2626L111.229 5.1414H114.441L109.683 9.92928L114.895 16.5656H111.653L107.683 11.6263Z" fill="white"/>
</svg>
