<svg width="64" height="22" viewBox="0 0 64 22" fill="none" xmlns="http://www.w3.org/2000/svg">
<path fill-rule="evenodd" clip-rule="evenodd" d="M13.9439 7.7125C13.9439 3.47195 10.1509 0.0235596 5.48633 0.0235596V3.19808C8.33398 3.19808 10.6545 5.13284 10.7605 7.54759L8.6049 9.46468C9.17914 10.4659 9.55608 11.5761 9.68271 12.754L11.6057 11.046C12.9721 13.6257 15.8757 15.4073 19.2298 15.4073V12.2328C16.3174 12.2328 13.9468 10.2068 13.9468 7.71545L13.9439 7.7125ZM14.459 4.25822C14.9449 5.3213 15.2129 6.4904 15.2129 7.7125C15.2129 7.73165 15.2143 7.75079 15.2158 7.76993C15.2173 7.78907 15.2188 7.80821 15.2188 7.82735L19.2267 4.26706V0.0235596L14.459 4.25822ZM13.7406 18.1519V21.3264V21.3294C10.0743 21.3294 6.9439 19.1944 5.77481 16.2201L0 21.35V17.1036L1.69917 15.5899L4.00791 13.5374L5.124 12.5479C4.5527 10.5808 2.4766 9.11718 0 9.11718V5.94266C4.66461 5.94266 8.45754 9.394 8.45754 13.6345C8.45754 16.1259 10.8281 18.1519 13.7406 18.1519Z" fill="white"/>
<path fill-rule="evenodd" clip-rule="evenodd" d="M34.1665 9.0524V15.4044H31.5721V9.38222C31.5721 7.40919 30.5973 6.45506 28.9365 6.45506C27.0901 6.45506 25.8444 7.57704 25.8444 9.79744V15.4014H23.25V0H25.8444V5.60401C26.6954 4.69111 28.003 4.19343 29.5402 4.19343C32.1964 4.19343 34.1694 5.71002 34.1694 9.0524H34.1665ZM48.2001 4.31712V15.4044H45.7294V13.9938C44.899 15.0098 43.5915 15.5516 42.1603 15.5516C39.3156 15.5516 37.3867 13.9938 37.3867 10.6514V4.31712H39.9811V10.2951C39.9811 12.3094 40.9352 13.2635 42.5755 13.2635C44.3807 13.2635 45.6057 12.1415 45.6057 9.92113V4.31712H48.2001ZM57.7513 15.5516C60.9877 15.5516 63.3759 13.3077 63.3759 9.86223L63.373 9.86517C63.373 6.41678 60.9877 4.19638 57.7484 4.19638C56.3378 4.19638 55.0921 4.67344 54.1999 5.66879V0H51.6055V15.4044H54.0762V13.9732C54.9478 15.0333 56.2347 15.5516 57.7513 15.5516ZM57.4598 6.39617C59.3297 6.39617 60.7403 7.7449 60.7403 9.86223C60.7403 11.9796 59.3297 13.3283 57.4598 13.3283C55.5898 13.3283 54.1586 11.9796 54.1586 9.86223C54.1586 7.7449 55.5898 6.39617 57.4598 6.39617Z" fill="white"/>
</svg>
